<svg id="Layer_1" data-name="Layer 1" xmlns="http://www.w3.org/2000/svg" viewBox="0 0 51.43 51.42"><defs><style>.cls-1{fill:#dec79b;}</style></defs><title>cms</title><path class="cls-1" d="M54.45,28.1l-3.54-.24a5.33,5.33,0,0,0-.2-.76,19,19,0,0,0-2.17-5L51,19.47c1.32-1.45,1-3.94-.77-5.51l-1.93-1.77a4.8,4.8,0,0,0-3.17-1.28,3.23,3.23,0,0,0-2.49,1L40.15,14.6a20,20,0,0,0-5.95-1.72S34,11.27,33.64,9.3a3.92,3.92,0,0,0-4.06-3,5.42,5.42,0,0,0-.8.08l-2.65.4c-2.37.36-4,2.29-3.7,4.3L23,14.68a20.55,20.55,0,0,0-5,3.46s-1.44-.8-3.21-1.81a3.21,3.21,0,0,0-1.61-.4A4.59,4.59,0,0,0,9.37,18.3L8.05,20.59c-1.21,2.09-.72,4.54,1,5.54l3.22,1.81a18.08,18.08,0,0,0-.45,6.11L8.45,35.41c-1.89.77-2.69,3.18-1.81,5.39l1,2.41a4.32,4.32,0,0,0,3.81,2.85,2.92,2.92,0,0,0,1.17-.24L16,44.45a19.53,19.53,0,0,0,4.54,4.18s-.48,1.53-1,3.46.8,4,3.09,4.66l2.53.76a4.69,4.69,0,0,0,1.45.2,3.7,3.7,0,0,0,3.69-2.37l1.05-3.41h.16a19.91,19.91,0,0,0,5.3-.73l.85-.24s.88,1.29,2,2.9a3.28,3.28,0,0,0,2.81,1.32,4.93,4.93,0,0,0,2.77-.88l2.21-1.53C49.35,51.4,50,49,49,47.43l-2-2.86A19.41,19.41,0,0,0,50.11,39s1.57.12,3.54.24h.2c1.85,0,3.45-1.77,3.65-4.1l.2-2.57C57.87,30.23,56.42,28.22,54.45,28.1ZM56,32.52l-.2,2.57c-.08,1.41-1,2.53-2,2.53h-.08l-3.54-.24L49,37.3l-.45,1.17a17.44,17.44,0,0,1-2.89,5.06l-.8,1,.72,1,2,2.89a1.61,1.61,0,0,1,.2,1.09,3.17,3.17,0,0,1-1.32,1.88l-2.21,1.53a3.3,3.3,0,0,1-1.85.6A1.72,1.72,0,0,1,41,52.89l-2-2.89-.68-1-1.17.37c-.2.08-.48.16-.76.24a18,18,0,0,1-4.86.64H30.1l-.36,1.2-1,3.42a2.09,2.09,0,0,1-2.13,1.2,3,3,0,0,1-1-.16L23,55.14a2.88,2.88,0,0,1-1.8-1.37,1.44,1.44,0,0,1-.16-1.2l1-3.46.36-1.2-1-.68a17.13,17.13,0,0,1-4.18-3.82l-.72-1-1.17.44L12,44.25a1.35,1.35,0,0,1-.57.12,2.72,2.72,0,0,1-2.29-1.84l-1-2.41a2.93,2.93,0,0,1,0-2.25,1.63,1.63,0,0,1,.92-1l3.42-1.36,1.16-.45-.12-1.24a17.44,17.44,0,0,1,.4-5.59L14.2,27l-1.09-.6L9.9,24.61a1.53,1.53,0,0,1-.73-1.05,2.82,2.82,0,0,1,.32-2.17l1.33-2.29a2.84,2.84,0,0,1,2.33-1.52,1.82,1.82,0,0,1,.8.2l3.22,1.81,1.08.6.89-.85a17.41,17.41,0,0,1,4.62-3.17l1.12-.52-.2-1.25-.56-3.61a1.75,1.75,0,0,1,.48-1.41,3.08,3.08,0,0,1,1.85-1L29.1,8a2.64,2.64,0,0,1,.56,0A2.24,2.24,0,0,1,32,9.54l.57,3.58.2,1.24,1.24.16a18.64,18.64,0,0,1,5.47,1.57l1.08.52.8-.88,2.45-2.65a1.82,1.82,0,0,1,1.29-.48,3.2,3.2,0,0,1,2,.84l1.93,1.77a3.16,3.16,0,0,1,1,2,1.62,1.62,0,0,1-.36,1.12L47.38,21l-.84.93L47.22,23a17.6,17.6,0,0,1,2,4.62c0,.2.12.44.16.72l.28,1.21,1.24.08,3.54.24a1.55,1.55,0,0,1,1,.56A3.09,3.09,0,0,1,56,32.52Z" transform="translate(-6.28 -6.29)"/><path class="cls-1" d="M32,18.62A13.38,13.38,0,1,0,45.29,32,13.34,13.34,0,0,0,32,18.62Zm0,25.07A11.69,11.69,0,1,1,43.64,32,11.69,11.69,0,0,1,32,43.69Z" transform="translate(-6.28 -6.29)"/><path class="cls-1" d="M35.21,36.46H28.78a.4.4,0,0,0-.4.4c0,.24.16.36.4.36h6.43a.37.37,0,0,0,.4-.36A.38.38,0,0,0,35.21,36.46Z" transform="translate(-6.28 -6.29)"/><path class="cls-1" d="M35.21,34H28.78a.4.4,0,1,0,0,.8h6.43a.38.38,0,0,0,.4-.4A.4.4,0,0,0,35.21,34Z" transform="translate(-6.28 -6.29)"/><path class="cls-1" d="M35.21,31.6H28.78a.4.4,0,0,0,0,.8h6.43a.4.4,0,0,0,0-.8Z" transform="translate(-6.28 -6.29)"/><path class="cls-1" d="M28.38,29.59a.38.38,0,0,0,.4.4h6.43a.4.4,0,0,0,.4-.4.38.38,0,0,0-.4-.4H28.78A.38.38,0,0,0,28.38,29.59Z" transform="translate(-6.28 -6.29)"/><path class="cls-1" d="M28.78,27.58h3.57a.4.4,0,0,0,.41-.4.38.38,0,0,0-.41-.4H28.78a.38.38,0,0,0-.4.4A.4.4,0,0,0,28.78,27.58Z" transform="translate(-6.28 -6.29)"/><path class="cls-1" d="M26.37,23.56a1.52,1.52,0,0,0-1.61,1.49V39.31a1.54,1.54,0,0,0,1.61,1.53H37.22a1.52,1.52,0,0,0,1.6-1.53V27.58l-4.1-4Zm10.85,4.82V39.27H26.37V25.17H34v1.57a1.53,1.53,0,0,0,1.53,1.64Z" transform="translate(-6.28 -6.29)"/></svg>