<svg id="Layer_1" data-name="Layer 1" xmlns="http://www.w3.org/2000/svg" viewBox="0 0 48.42 47.6"><defs><style>.cls-1{fill:#dec79b;}</style></defs><title>content-marketing-2</title><path class="cls-1" d="M55.54,8.2H17a.69.69,0,0,0-.73.73V33.25H8.52a.69.69,0,0,0-.73.73v16.9a4.92,4.92,0,0,0,4.92,4.92H51a5.24,5.24,0,0,0,5.22-5.22V8.93A.61.61,0,0,0,55.54,8.2ZM16.24,50.88A3.41,3.41,0,0,1,13,54.33h-.22a3.45,3.45,0,0,1-3.46-3.45V34.72h7V50.88Zm38.56-.3a3.76,3.76,0,0,1-3.74,3.75H16.24a.07.07,0,0,1,.07-.07c.07-.08.07-.15.15-.15s.07-.15.15-.15.07-.14.14-.22.08-.14.15-.14.07-.15.15-.22.07-.15.07-.22.07-.15.15-.22.07-.15.07-.23.07-.14.07-.22.08-.14.08-.22.07-.14.07-.29a.28.28,0,0,1,.07-.22.4.4,0,0,1,.08-.29V9.67H54.8Z" transform="translate(-7.79 -8.2)"/><path class="cls-1" d="M21.67,21.13H51.35a.7.7,0,0,0,.73-.74V12.24a.69.69,0,0,0-.73-.73H21.67a.69.69,0,0,0-.73.73v8.23A.68.68,0,0,0,21.67,21.13ZM22.41,13H50.62v6.76H22.41Z" transform="translate(-7.79 -8.2)"/><path class="cls-1" d="M21.67,34.13H34.31A.69.69,0,0,0,35,33.4V24.58a.69.69,0,0,0-.73-.73H21.67a.69.69,0,0,0-.73.73V33.4A.69.69,0,0,0,21.67,34.13Zm.74-8.81H33.57v7.34H22.41Z" transform="translate(-7.79 -8.2)"/><path class="cls-1" d="M51.28,24.73H38.35a.7.7,0,0,0-.74.73.7.7,0,0,0,.74.74H51.28a.7.7,0,0,0,.73-.74A.69.69,0,0,0,51.28,24.73Z" transform="translate(-7.79 -8.2)"/><path class="cls-1" d="M51.28,29.72H38.35a.7.7,0,0,0-.74.74.7.7,0,0,0,.74.73H51.28a.69.69,0,0,0,.73-.73A.7.7,0,0,0,51.28,29.72Z" transform="translate(-7.79 -8.2)"/><path class="cls-1" d="M51.28,34.64H38.35a.7.7,0,0,0-.74.74.7.7,0,0,0,.74.73H51.28a.69.69,0,0,0,.73-.73A.7.7,0,0,0,51.28,34.64Z" transform="translate(-7.79 -8.2)"/><path class="cls-1" d="M21.67,41H51.35a.7.7,0,0,0,.73-.74.69.69,0,0,0-.73-.73H21.67a.69.69,0,0,0-.73.73A.7.7,0,0,0,21.67,41Z" transform="translate(-7.79 -8.2)"/><path class="cls-1" d="M21.67,46H51.35a.74.74,0,0,0,0-1.47H21.67a.74.74,0,0,0,0,1.47Z" transform="translate(-7.79 -8.2)"/><path class="cls-1" d="M21.67,51H51.35a.69.69,0,0,0,.73-.73.7.7,0,0,0-.73-.74H21.67a.7.7,0,0,0-.73.74A.69.69,0,0,0,21.67,51Z" transform="translate(-7.79 -8.2)"/></svg>