<svg width="100" height="100" viewBox="0 0 100 100" fill="none" xmlns="http://www.w3.org/2000/svg">
<path d="M89.7 49.8L81.4 37.1C81.2 36.8 81.1 36.3 81 35.9C79.3 17.1 63.9 3 45.1 3C25.2 3 9 19.2 9 39.1C9 50.6 14.4 62.1 23.3 69.8C23.6 70.1 23.8 70.4 23.8 70.7V89.5C23.8 92.6 26.1 95.2 29.2 95.4L57.6 97.9C57.8 97.9 57.9 97.9 58.1 97.9C59.6 97.9 61 97.3 62.1 96.3C63.3 95.2 64 93.6 64 91.9V80.2H72.4C77.1 80.2 81 76.3 81 71.6V60.3H83.8C86.3 60.3 88.6 58.9 89.7 56.8C91.1 54.5 91 51.9 89.7 49.8ZM84 54.1H79.2C76.9 54.1 75 56 75 58.3V71.6C75 73 73.9 74.1 72.5 74.1H62.6C60 74.1 57.9 76.2 57.9 78.8L58.1 92L30 89.5V70.6C30 68.5 29 66.4 27.4 65C19.9 58.6 15.2 48.6 15.2 39C15.2 22.5 28.6 9.1 45.1 9.1C60.7 9.1 73.5 20.8 74.8 36.4C74.9 37.8 75.3 39 76 40.3L84.4 53.1C84.5 53.3 84.5 53.5 84.4 53.7C84.4 54 84.2 54.1 84 54.1Z" fill="#DFC79B"/>
<path d="M52.3001 34.4004H40.2001C39.1001 34.4004 38.1001 35.3004 38.1001 36.5004V48.7004C38.1001 49.8004 39.0001 50.8004 40.2001 50.8004H52.4001C53.5001 50.8004 54.5001 49.9004 54.5001 48.7004V36.5004C54.4001 35.3004 53.5001 34.4004 52.3001 34.4004ZM42.2001 46.6004V38.6004H50.2001V46.6004H42.2001Z" fill="#DFC79B"/>
<path d="M66.7998 36.5998C67.8998 36.5998 68.8998 35.6998 68.8998 34.4998C68.8998 33.3998 67.9998 32.3998 66.7998 32.3998H62.3998C62.3998 29.0998 59.6998 26.2998 56.2998 26.2998V21.8998C56.2998 20.7998 55.3998 19.7998 54.1998 19.7998C53.0998 19.7998 52.0998 20.6998 52.0998 21.8998V26.2998H48.1998V21.8998C48.1998 20.7998 47.2998 19.7998 46.0998 19.7998C44.9998 19.7998 43.9998 20.6998 43.9998 21.8998V26.2998H40.0998V21.8998C40.0998 20.7998 39.1998 19.7998 37.9998 19.7998C36.7998 19.7998 35.8998 20.6998 35.8998 21.8998V26.2998C32.5998 26.2998 29.7998 28.9998 29.7998 32.3998H25.3998C24.2998 32.3998 23.2998 33.2998 23.2998 34.4998C23.2998 35.6998 24.1998 36.5998 25.3998 36.5998H29.7998V40.4998H25.3998C24.2998 40.4998 23.2998 41.3998 23.2998 42.5998C23.2998 43.6998 24.1998 44.6998 25.3998 44.6998H29.7998V48.4998H25.3998C24.2998 48.4998 23.2998 49.3998 23.2998 50.5998C23.2998 51.6998 24.1998 52.6998 25.3998 52.6998H29.7998C29.7998 55.9998 32.4998 58.7998 35.8998 58.7998V63.1998C35.8998 64.2998 36.7998 65.2998 37.9998 65.2998C39.1998 65.2998 40.0998 64.3998 40.0998 63.1998V58.7998H43.9998V63.1998C43.9998 64.2998 44.8998 65.2998 46.0998 65.2998C47.1998 65.2998 48.1998 64.3998 48.1998 63.1998V58.7998H52.0998V63.1998C52.0998 64.2998 52.9998 65.2998 54.1998 65.2998C55.2998 65.2998 56.2998 64.3998 56.2998 63.1998V58.7998C59.5998 58.7998 62.3998 56.0998 62.3998 52.6998H66.7998C67.8998 52.6998 68.8998 51.7998 68.8998 50.5998C68.8998 49.3998 67.8998 48.4998 66.7998 48.4998H62.3998V44.5998H66.7998C67.8998 44.5998 68.8998 43.6998 68.8998 42.4998C68.8998 41.2998 67.8998 40.4998 66.7998 40.4998H62.3998V36.5998H66.7998ZM56.3998 54.5998H36.0998C34.9998 54.5998 34.1998 53.6998 34.1998 52.6998V32.3998C34.1998 31.2998 35.0998 30.4998 36.0998 30.4998H56.2998C57.3998 30.4998 58.1998 31.3998 58.1998 32.3998V52.5998C58.2998 53.6998 57.3998 54.5998 56.3998 54.5998Z" fill="#DFC79B"/>
</svg>
