<svg id="Layer_1" data-name="Layer 1" xmlns="http://www.w3.org/2000/svg" viewBox="0 0 50.76 45.2"><defs><style>.cls-1{fill:#dec79b;}</style></defs><title>react-2svg</title><path class="cls-1" d="M57.38,32c0-3.37-4.21-6.55-10.67-8.53,1.49-6.58.83-11.82-2.09-13.49a4.57,4.57,0,0,0-2.32-.58v2.31a2.34,2.34,0,0,1,1.18.27c1.41.8,2,3.87,1.55,7.83-.12,1-.3,2-.53,3a49.85,49.85,0,0,0-6.57-1.13,51.06,51.06,0,0,0-4.31-5.17c3.38-3.14,6.54-4.85,8.7-4.85V9.4h0c-2.85,0-6.57,2-10.34,5.54-3.77-3.49-7.49-5.5-10.34-5.5v2.31c2.15,0,5.32,1.7,8.69,4.82a50.72,50.72,0,0,0-4.27,5.16,48.11,48.11,0,0,0-6.58,1.14c-.24-1-.41-2-.54-3-.48-4,.12-7,1.51-7.84a2.28,2.28,0,0,1,1.19-.27V9.45h0a4.6,4.6,0,0,0-2.33.58c-2.91,1.68-3.56,6.9-2.06,13.46-6.44,2-10.63,5.16-10.63,8.52s4.21,6.54,10.67,8.52C15.8,47.11,16.46,52.35,19.38,54a4.48,4.48,0,0,0,2.33.58c2.84,0,6.57-2,10.33-5.54,3.77,3.49,7.49,5.5,10.34,5.5A4.67,4.67,0,0,0,44.72,54c2.9-1.68,3.55-6.9,2.05-13.46C53.19,38.54,57.38,35.36,57.38,32ZM43.91,25.1c-.38,1.34-.86,2.71-1.4,4.09-.42-.83-.87-1.65-1.35-2.48s-1-1.64-1.49-2.42C41.14,24.5,42.55,24.77,43.91,25.1Zm-4.74,11c-.81,1.4-1.63,2.72-2.49,4-1.55.13-3.11.2-4.68.2s-3.12-.07-4.66-.19c-.85-1.24-1.69-2.55-2.5-3.94s-1.5-2.73-2.15-4.11c.64-1.39,1.36-2.78,2.14-4.13s1.63-2.72,2.49-3.95q2.33-.21,4.68-.21c1.56,0,3.12.07,4.66.2.85,1.23,1.69,2.54,2.5,3.93s1.5,2.73,2.15,4.11C40.66,33.38,40,34.77,39.17,36.12Zm3.34-1.34a42.07,42.07,0,0,1,1.43,4.12c-1.36.33-2.78.61-4.26.82.5-.79,1-1.61,1.49-2.45S42.09,35.61,42.51,34.78ZM32,45.82q-1.44-1.5-2.88-3.31c.94,0,1.89.07,2.85.07s1.93,0,2.88-.07C33.93,43.72,33,44.82,32,45.82Zm-7.7-6.1c-1.47-.21-2.88-.48-4.24-.81.38-1.34.86-2.71,1.4-4.09.42.83.87,1.65,1.35,2.48S23.82,38.94,24.32,39.72ZM32,18.19q1.44,1.5,2.88,3.31c-.94,0-1.89-.07-2.85-.07s-1.93,0-2.88.07A41.79,41.79,0,0,1,32,18.19Zm-7.66,6.1c-.5.79-1,1.61-1.49,2.45s-.92,1.65-1.34,2.48a42.07,42.07,0,0,1-1.43-4.12C21.41,24.78,22.83,24.5,24.31,24.29ZM15,37.24c-3.66-1.56-6-3.61-6-5.23s2.37-3.69,6-5.24c.89-.38,1.86-.72,2.87-1.05A48.88,48.88,0,0,0,20.14,32a49,49,0,0,0-2.29,6.27C16.82,38,15.85,37.62,15,37.24ZM20.52,52c-1.41-.81-2-3.88-1.55-7.84.12-1,.3-2,.53-3a49.85,49.85,0,0,0,6.57,1.13,51.06,51.06,0,0,0,4.31,5.17c-3.38,3.14-6.54,4.85-8.7,4.85A2.51,2.51,0,0,1,20.52,52Zm24.54-7.89c.48,4-.12,7-1.51,7.84a2.28,2.28,0,0,1-1.19.27c-2.15,0-5.32-1.7-8.69-4.82a50.72,50.72,0,0,0,4.27-5.16,48.11,48.11,0,0,0,6.58-1.14A30.49,30.49,0,0,1,45.06,44.14Zm4-6.9c-.89.38-1.86.72-2.87,1A50.41,50.41,0,0,0,43.85,32a49,49,0,0,0,2.29-6.27c1,.33,2,.68,2.91,1.06,3.66,1.56,6,3.61,6,5.24S52.7,35.69,49,37.24Z" transform="translate(-6.62 -9.4)"/><path class="cls-1" d="M21.63,9.44Z" transform="translate(-6.62 -9.4)"/><circle class="cls-1" cx="25.37" cy="22.61" r="4.73"/><path class="cls-1" d="M42.29,9.41Z" transform="translate(-6.62 -9.4)"/></svg>