<svg id="Layer_1" data-name="Layer 1" xmlns="http://www.w3.org/2000/svg" viewBox="0 0 52.94 52.73"><defs><style>.cls-1{fill:#dec79b;}.cls-2{fill:none;stroke:#dec79b;stroke-linejoin:round;stroke-width:2.8px;}</style></defs><title>seo2</title><path class="cls-1" d="M32.26,22.76V34.68H34.8V20.23h0l-2.54,2.53ZM30.37,34.68v-10h0l-2.64,2.63h0v7.49h0l2.64-.1Zm-4.33,0V29h0L23.4,31.62h0v3.06H26Zm-4.43,0V30.35h0l-2.43-2.42-.21.21v6.54h2.64Zm-4.43,0V29.93h0l-2.64,2.64h0v2.11h2.64ZM42.39,35h0a18.58,18.58,0,0,0,2.43-9.38A19.29,19.29,0,1,0,34.9,42.48h0ZM25.3,9.26A16.35,16.35,0,1,1,9.38,24.55,16.31,16.31,0,0,1,25.3,9.26ZM32.47,17l-9.38,9.38h0l-4-4h0l-7.17,7.17h0L13.7,31.3h0L19,26h0l4,4h0L34.16,18.85h0l1.8,1.8-.11-5.38h0l-5.38.21,2,1.48Z" transform="translate(-6.23 -6.34)"/><rect class="cls-2" x="42.89" y="35.24" width="7.91" height="22.99" transform="translate(-25.56 40.48) rotate(-45)"/></svg>