<svg id="Layer_1" data-name="Layer 1" xmlns="http://www.w3.org/2000/svg" viewBox="0 0 42.52 53.06"><defs><style>.cls-1{fill:#dec79b;}</style></defs><title>strategy2</title><rect class="cls-1" x="3.54" y="7.09" width="35.43" height="8.86"/><polygon class="cls-1" points="12.67 27.55 11.34 24.8 14.17 24.8 14.17 21.97 17.36 23.56 19.05 21.79 19.49 22.59 19.49 17.72 3.54 17.72 3.54 28.35 11.07 28.35 12.67 27.55"/><path class="cls-1" d="M33.77,23.19v7a4.74,4.74,0,0,1,1.06.36l4,1.33A3.82,3.82,0,0,1,41,33.82h8.77V23.19Z" transform="translate(-10.74 -5.47)"/><polygon class="cls-1" points="10.81 31 11.69 30.12 3.54 30.12 3.54 31.89 11.69 31.89 10.81 31"/><path class="cls-1" d="M41.48,35.59a3.93,3.93,0,0,1-.09,1.77h8.33V35.59Z" transform="translate(-10.74 -5.47)"/><polygon class="cls-1" points="10.81 34.55 11.69 33.66 3.54 33.66 3.54 35.43 11.69 35.43 10.81 34.55"/><path class="cls-1" d="M40.33,39.13A3.56,3.56,0,0,1,38,40h-.79l.88.88H49.72V39.13Z" transform="translate(-10.74 -5.47)"/><polygon class="cls-1" points="13.64 38.18 12.58 37.2 3.54 37.2 3.54 38.98 14 38.98 13.64 38.18"/><path class="cls-1" d="M38.2,55.08c-.53,0-.89-.18-.89-.45s.36-.44.89-.44a.89.89,0,1,0,0-1.77h-.89c-.62-.27-.88-.62-.88-.89a1.7,1.7,0,0,0,1.42-.8l1.24-1.86c1.06-1.68,1.33-3.18,0-4.42l-6.2-6.21H38a1.68,1.68,0,0,0,1.6-1l.09-.18a1.81,1.81,0,0,0,.09-1.33l-.36-1.15a1.87,1.87,0,0,0-1.15-1.15l-4-1.33-1.06-.26-1.77-.45a5.36,5.36,0,0,0-1.6,0l-.53-1.15-.88.89-1.77-.89V32H24.91l.89,1.78L24,34.7l.88.89-.88.88.88.89-.88.88.88.89L24,40l.88.88v.89l.89.88.89,1.78.79.35.36.71a1.84,1.84,0,0,1-.8,2.3l-.89.44a.94.94,0,0,0-.26,1.42l1.24,1.24a1.72,1.72,0,0,0,1.24.53h.09c0,.27-.27.62-.89.89h-.88a.89.89,0,1,0,0,1.77c.53,0,.88.18.88.44s-.35.45-.88.45a1.77,1.77,0,1,0,0,3.54H38.2A1.78,1.78,0,0,0,40,56.76,1.76,1.76,0,0,0,38.2,55.08Z" transform="translate(-10.74 -5.47)"/><path class="cls-1" d="M10.74,5.47V49.76H23.85a4.22,4.22,0,0,1-.09-1.06A1.15,1.15,0,0,1,24,48H12.51V10.79h39V48h-10a6.52,6.52,0,0,1-.89,1.77H53.26V5.47Z" transform="translate(-10.74 -5.47)"/></svg>