<svg width="340" height="260" viewBox="0 0 340 260" fill="none" xmlns="http://www.w3.org/2000/svg">
<path d="M215.071 97.4106L205.183 95.1663C205.026 94.7561 204.857 94.3579 204.688 93.9597L210.097 85.405C211.135 83.7641 210.894 81.6283 209.53 80.2528L199.086 69.8037C197.709 68.4282 195.572 68.1868 193.918 69.2245L185.346 74.6421C184.947 74.4611 184.537 74.3043 184.138 74.1474L181.893 64.2654C181.458 62.3711 179.78 61.0317 177.836 61.0317H163.07C161.126 61.0317 159.447 62.371 159.013 64.2654L156.779 74.1474C156.381 74.3043 155.982 74.4732 155.584 74.6421L146.999 69.2245C145.357 68.1868 143.208 68.4282 141.844 69.8037L131.4 80.2528C130.024 81.6283 129.794 83.7639 130.832 85.405L136.242 93.9718C136.073 94.3699 135.903 94.7681 135.747 95.1663L125.858 97.4106C123.963 97.8449 122.622 99.5221 122.622 101.465V116.233C122.622 118.176 123.975 119.865 125.87 120.287L135.759 122.508C135.916 122.906 136.085 123.316 136.254 123.714L130.832 132.281C129.794 133.922 130.036 136.058 131.4 137.433L141.844 147.882C143.22 149.258 145.357 149.499 146.999 148.461L155.584 143.056C155.982 143.225 156.381 143.394 156.779 143.551L159.013 153.433C159.447 155.327 161.126 156.666 163.07 156.666H177.836C179.78 156.666 181.458 155.327 181.893 153.433L184.138 143.551C184.549 143.394 184.947 143.225 185.346 143.056L193.918 148.474C195.56 149.511 197.709 149.27 199.086 147.894L209.53 137.445C210.906 136.07 211.135 133.934 210.097 132.293L204.688 123.726C204.857 123.328 205.026 122.918 205.195 122.508L215.071 120.287C216.967 119.865 218.319 118.176 218.319 116.233V101.465C218.307 99.5221 216.967 97.8328 215.071 97.4106ZM209.989 112.915L201.126 114.906C199.702 115.232 198.542 116.282 198.084 117.669C197.552 119.274 196.961 120.722 196.248 122.085C195.56 123.401 195.633 124.969 196.417 126.224L201.271 133.91L195.524 139.653L187.833 134.803C186.589 134.019 185.032 133.946 183.728 134.61C182.267 135.358 180.782 135.973 179.309 136.432C177.908 136.878 176.833 138.037 176.507 139.473L174.491 148.341H166.365L164.361 139.473C164.035 138.037 162.973 136.878 161.56 136.432C160.075 135.961 158.602 135.346 157.177 134.61C155.873 133.934 154.304 134.007 153.048 134.791L145.333 139.653L139.586 133.91L144.439 126.224C145.224 124.981 145.296 123.425 144.632 122.122C143.884 120.662 143.268 119.177 142.809 117.705C142.363 116.294 141.203 115.232 139.755 114.906L130.88 112.915V104.783L139.755 102.768C141.191 102.442 142.35 101.38 142.797 99.9684C143.268 98.4964 143.884 97.0123 144.62 95.5884C145.296 94.2732 145.224 92.7046 144.439 91.4619L139.586 83.7758L145.333 78.0324L153.048 82.8949C154.292 83.6792 155.861 83.7516 157.177 83.0759C158.614 82.3399 160.087 81.7245 161.56 81.2539C162.961 80.8075 164.035 79.6492 164.361 78.2133L166.365 69.3448H174.491L176.508 78.2133C176.834 79.6491 177.896 80.8075 179.309 81.2539C180.782 81.7245 182.267 82.3399 183.728 83.0759C185.032 83.7395 186.601 83.6671 187.833 82.8828L195.524 78.0323L201.271 83.7758L196.417 91.4619C195.621 92.7168 195.56 94.2974 196.248 95.6128C196.949 96.9521 197.552 98.3879 198.084 100.005C198.542 101.392 199.689 102.442 201.114 102.768L209.976 104.771L209.989 112.915ZM170.459 86.5633C158.156 86.5633 148.134 96.5661 148.134 108.861C148.134 121.157 158.143 131.159 170.459 131.159C182.762 131.159 192.772 121.157 192.772 108.861C192.772 96.554 182.762 86.5633 170.459 86.5633ZM170.459 122.833C162.732 122.833 156.453 116.559 156.453 108.849C156.453 101.139 162.732 94.8644 170.459 94.8644C178.174 94.8644 184.452 101.139 184.452 108.849C184.452 116.559 178.174 122.833 170.459 122.833ZM310.938 7.01207H222.157C216.109 7.01207 211.182 11.9472 211.182 18.0042V35.9704L129.731 35.9583V17.9921C129.731 11.9351 124.804 7 118.755 7L29.9752 7.01207C23.9263 7.01207 19 11.9472 19 18.0042V69.116C19 75.161 23.9263 80.0841 29.9752 80.0841H58.3488V192.239C58.3488 199.43 64.1925 205.282 71.3764 205.282H147.706V224.346H127.543C125.249 224.346 123.39 226.204 123.39 228.497V247.923C123.39 250.216 125.249 252.074 127.543 252.074H213.353C215.647 252.074 217.507 250.216 217.507 247.923V228.497C217.507 226.205 215.647 224.346 213.353 224.346H193.19V205.282H269.52C276.716 205.282 282.572 199.43 282.572 192.239L282.56 80.0748H310.933C316.982 80.0748 321.908 75.1517 321.908 69.1068V17.9949C321.908 11.9379 316.982 7.01485 310.933 7.01485L310.938 7.01207ZM27.322 69.1049V17.9931C27.322 16.5451 28.5414 15.3144 29.9782 15.3144H118.758C120.195 15.3144 121.415 16.5451 121.415 17.9931V69.1173C121.415 70.5531 120.195 71.7718 118.758 71.7718H107.819C105.525 71.7718 103.666 73.6299 103.666 75.9226V86.9991L90.9761 73.1232C90.1913 72.2665 89.0805 71.7718 87.9093 71.7718H29.9795C28.5185 71.7718 27.322 70.5769 27.322 69.1049ZM209.191 243.76H131.702V232.635H209.179L209.191 243.76ZM184.862 224.334H156.03V205.269H184.862V224.334ZM274.245 166.646H255.748C253.454 166.646 251.594 168.504 251.594 170.796C251.594 173.089 253.454 174.947 255.748 174.947H274.245V192.226C274.245 194.784 272.084 196.956 269.512 196.956H71.3789C68.783 196.956 66.6702 194.832 66.6702 192.226V174.947H244.169C246.463 174.947 248.322 173.089 248.322 170.796C248.322 168.504 246.463 166.646 244.169 166.646H66.6702V80.0732H86.0607L104.739 100.513C104.872 100.658 105.005 100.778 105.15 100.899C105.186 100.935 105.222 100.959 105.27 100.996C105.391 101.092 105.524 101.189 105.657 101.261C105.681 101.273 105.705 101.297 105.729 101.309C105.886 101.394 106.055 101.478 106.212 101.551C106.26 101.575 106.297 101.587 106.345 101.599C106.478 101.647 106.623 101.696 106.767 101.732C106.804 101.744 106.852 101.756 106.888 101.768C107.069 101.804 107.238 101.84 107.419 101.852C107.456 101.852 107.504 101.852 107.54 101.864C107.625 101.877 107.709 101.877 107.806 101.877C107.878 101.877 107.951 101.864 108.011 101.864H108.108C108.289 101.852 108.47 101.828 108.639 101.792C108.675 101.78 108.711 101.78 108.748 101.768C108.929 101.72 109.11 101.671 109.291 101.599C110.897 100.984 111.947 99.4392 111.947 97.7258V80.0975H118.733C124.782 80.0975 129.708 75.1745 129.708 69.1295V44.2976H211.159V69.1295C211.159 75.1745 216.086 80.0975 222.135 80.0975H228.896V97.7258C228.896 99.4392 229.946 100.984 231.552 101.599C231.733 101.671 231.915 101.72 232.096 101.768C232.132 101.78 232.168 101.792 232.204 101.792C232.385 101.828 232.554 101.852 232.736 101.864H232.832C232.905 101.864 232.977 101.877 233.037 101.877C233.122 101.877 233.206 101.864 233.303 101.864C233.339 101.864 233.375 101.864 233.424 101.852C233.605 101.84 233.786 101.804 233.955 101.768C233.991 101.756 234.04 101.744 234.076 101.732C234.221 101.696 234.366 101.647 234.498 101.599C234.547 101.587 234.583 101.563 234.631 101.551C234.8 101.478 234.957 101.406 235.126 101.309C235.15 101.297 235.174 101.273 235.199 101.261C235.331 101.177 235.464 101.092 235.597 100.996C235.633 100.959 235.682 100.935 235.718 100.899C235.863 100.778 236.008 100.658 236.128 100.513L254.807 80.0732H274.221L274.245 166.646ZM313.592 69.1046C313.592 70.5404 312.373 71.7591 310.936 71.7591L278.41 71.7712H253.007C251.836 71.7712 250.725 72.2659 249.94 73.1226L237.25 86.9985V75.922C237.25 73.6295 235.391 71.7712 233.097 71.7712H222.17C220.697 71.7712 219.514 70.5767 219.514 69.1167V17.9925C219.514 16.5445 220.733 15.3138 222.17 15.3138H310.95C312.387 15.3138 313.606 16.5445 313.606 17.9925L313.592 69.1046ZM65.1977 61.0083L52.2786 47.217C50.709 45.5399 50.7935 42.9096 52.4718 41.341C54.15 39.7725 56.782 39.8569 58.3516 41.5341L68.0951 51.9471L90.2387 26.1984C91.7358 24.4609 94.3678 24.2558 96.1064 25.752C97.8451 27.2481 98.0503 29.8784 96.5532 31.6159L71.3793 60.876C70.6065 61.7689 69.4957 62.2998 68.3125 62.3239H68.228C67.081 62.3239 65.9825 61.8529 65.1977 61.0083ZM283.335 32.6292L272.421 43.549L283.335 54.4688C284.953 56.0977 284.953 58.7281 283.335 60.3448C282.527 61.1532 281.464 61.5635 280.402 61.5635C279.339 61.5635 278.277 61.1532 277.455 60.3448L266.541 49.4373L255.626 60.3448C254.817 61.1532 253.755 61.5635 252.68 61.5635C251.618 61.5635 250.555 61.1532 249.746 60.3448C248.116 58.728 248.116 56.0855 249.746 54.4688L260.661 43.549L249.746 32.6292C248.128 31.0003 248.128 28.3699 249.746 26.7532C251.376 25.1363 254.008 25.1363 255.626 26.7532L266.541 37.6606L277.455 26.7532C279.073 25.1363 281.717 25.1243 283.335 26.7532C284.953 28.37 284.953 31.0004 283.335 32.6292ZM113.589 131.304C113.589 133.596 111.73 135.455 109.435 135.455H83.3679C81.0738 135.455 79.2143 133.596 79.2143 131.304C79.2143 129.011 81.0737 127.153 83.3679 127.153H109.435C111.729 127.153 113.589 129.011 113.589 131.304ZM113.589 147.544C113.589 149.837 111.73 151.695 109.435 151.695H83.3679C81.0738 151.695 79.2143 149.837 79.2143 147.544C79.2143 145.252 81.0737 143.394 83.3679 143.394H109.435C111.729 143.394 113.589 145.252 113.589 147.544Z" fill="#DEC79B"/>
</svg>
